<?xml version="1.0" encoding="UTF-8"?>
<svg width="40px" height="40px" version="1.1" viewBox="100 80 500 500" xmlns="http://www.w3.org/2000/svg">
    <g fill="#e77e02">
        <path d="m160.1 438.87c-19 0-43.191-7.8047-44.684-8.5469-2.5977-1.3008-16.375-15.344-17.141-20.965-0.60938-4.4844-0.015626-8.4492 0.003906-8.6133l0.074218-0.33203 12.691-46.535c-0.085938-2.6953-0.46875-16.141-0.11719-20.035 0.09375-1.0312 0.51953-3.3203 1.3945-7.9961 2.4375-13.004 7.5039-40.062 6.3828-52.359-0.61719-6.8203-2.4062-17.426-4.3008-28.66-2.6094-15.473-5.5664-33.012-6.125-44.723-0.33203-6.8984-1.1094-14.023-1.793-20.305-1.6367-15.043-2.3398-23.051 0.87891-26.48 4.7773-5.0898 10.16-4.5312 12.523-3.4648 0.12891 0.023438 0.28516 0.039063 0.44922 0.0625 4.3516 0.57813 9.5195 2.6641 10.859 13.82 1.6953 14.184 6.6211 45.938 10.27 55.07 3.3164 8.2891 10.633 21.48 13.547 25.492 2.1445-2.0156 2.7031-8.5469 2.8633-11.574 0.14062-2.7617 0.29297-6.5312 0.46484-10.797 0.46875-11.871 1.125-28.125 2.168-36.883 0.23438-1.9219 0.50391-4.8984 0.83594-8.5273 3.832-41.914 7.4609-56.543 14.363-57.973 10.406-2.1406 17.793 3.293 18.098 3.5273 3.707 2.7812 5.0195 25.637 4.6797 47.051-0.089844 5.7852-0.19531 11.535-0.29688 17.078-0.375 20.719-0.76562 42.141 0.039062 45.555l0.042969 0.078125c0.16406 0.25391 0.35938 0.55859 0.55469 0.85156 4.9883-5.8086 31.488-39.387 36.254-47.008 2.8672-4.5938 7.7109-13.535 11.609-20.719 2.9336-5.4141 5.2539-9.6992 6.332-11.43 3.1875-5.1016 11.918-8.6641 16.082-6.5703 0.42188 0.20703 1.0195 0.37109 1.6953 0.57812 3.2305 0.98438 9.957 3.0391 9.6758 10.434-0.26953 7.0742-8.8047 35.41-10.465 39.219-0.99219 2.2617-6.1445 11.594-13.312 24.523-3.6797 6.6367-7.4766 13.492-7.8789 14.371-0.57031 1.2812-1.5625 2.2852-2.4375 3.168-0.074218 0.074219-0.14453 0.14453-0.23047 0.23047 1.0742 0 3.0859-0.20312 6.7031-1.0078l0.83594-0.18359c0.20703-0.042968 21.309-4.3008 26.785-4.3008 6.2266 0 16.398 7.8047 18.484 10.281 2.8555 3.3867 10.113 37.27 10.113 49.902 0 0.34766-0.67578 29.191-3.3828 40.699l3.0352 2.9297 0.22266 0.75c0.73828 2.4688 1.4688 12.762 0.003907 17.773-0.99609 3.4219-3.6562 7.168-6.0078 10.477-1.0742 1.5195-2.0938 2.9531-2.6602 3.9648-2.2305 4.0078-7.6094 4.6602-12.363 5.2305-0.99609 0.11719-1.9648 0.23438-2.8438 0.37891-4.4297 0.73828-32.66 3.4062-37.129 3.4062-1.9531 0.20312-9.2891 5.6211-12.82 8.2266-3.1367 2.3125-5.6094 4.1367-7.1562 4.918-3.9688 1.9805-16.402 2.1797-20.531 2.1836l-4.4844 0.75c-1.9766 9.0117-6.6914 30.016-8.4766 33.23-1.9531 3.5234-4.3359 4.0703-11.402 5.6914-2.8398 0.64844-6.6289 1.5195-11.766 2.8633-3.2852 0.86328-7.1289 1.2227-11.211 1.2227zm-55.922-37.074c-0.085937 0.67578-0.40234 3.5898 0.027344 6.7539 0.55469 2.7773 11.402 14.895 13.957 16.453 3.2031 1.457 35.816 10.98 51.676 6.8477 5.207-1.3555 9.0508-2.2344 11.934-2.9023 6.5977-1.5195 6.9258-1.707 7.5078-2.7617 1.0703-2.0391 5.0586-18.672 8.2891-33.57l0.42969-1.9805 9.2227-1.4961c7.2109 0 16.184-0.59375 18.098-1.5508 1.082-0.54297 3.7227-2.4922 6.2773-4.3789 7.6875-5.6797 12.977-9.3984 16.367-9.3984 3.7852 0 31.484-2.5469 36.148-3.3281 0.96484-0.15625 2.0156-0.29297 3.1133-0.42188 2.6562-0.32031 7.1016-0.85156 7.8438-2.1953 0.72266-1.3047 1.8359-2.8672 3.0078-4.5234 1.9766-2.7773 4.4297-6.2383 5.1445-8.6953 1.0117-3.4766 0.53125-11.176 0.13281-13.715l-0.91406-0.88672c-4.5039 1.7305-16 2.8281-18.574 1.1016-0.91797-0.60547-9.1328-7.3789-9.7266-12.422-0.28516-2.4141 0.023437-7.7852 0.45312-14.555 0.11719-1.7852 0.21094-3.3594 0.26172-4.4336 0.18359-4-1.8555-21.766-2.7539-24.07-1.0078-2.1836-2.3672-4.2891-3.5391-5.4609 0 0.023437-0.39844 0.13281-0.91797 0.50391-1.293 0.92969-3.7422 3.4883-4.0586 4.4023-0.14453 0.74609-0.62891 2.0781-1.5352 4.5469-0.93359 2.5469-2.0898 7.8516-2.0898 9.1836 0.17969 2.3047 0.44141 4.0547 0.44141 4.8984v-1.3398h-5.6016v0.46094l-0.82812-0.46484s-0.12891-1.2383-0.26172-3.1406c-0.15625-2.1992 0.93359-6.0312 2.9844-11.637 0.53906-1.4609 1.082-3.2812 1.1797-3.7461 0.72656-3.6289 6.3125-7.9688 6.3672-8.0117 3.0469-2.1797 6.3281-2.1289 8.5898 0.13281 1.6875 1.6875 3.3984 4.3164 4.7422 7.2188 1.5352 3.3281 3.457 22.992 3.2812 26.809-0.050781 1.1016-0.16406 2.7148-0.27344 4.5547-0.29297 4.543-0.72656 11.406-0.48828 13.469 0.25391 1.6562 4.8594 6.4961 6.8594 7.9727 2.1562 0.41016 10.207-0.40234 12.809-1.2656 1.3906-4.7148 3.3555-28.023 3.3555-40.566 0-12.477-7.0781-43.211-8.8359-46.223-1.6367-1.9219-10.32-7.9805-13.777-7.9805-4.1719 0-22.191 3.4648-25.555 4.1719l-0.76562 0.16797c-5.125 1.1406-10.812 2.1016-13.551-0.98047-3.1523-3.5547 0.23438-6.9883 1.5195-8.2812 0.41016-0.41406 1.0938-1.1094 1.2266-1.3984 0.45312-1.0195 3.2305-6.0469 8.1133-14.844 5.1133-9.2188 12.113-21.84 13.066-24.02 1.668-3.832 9.7383-31.062 9.9688-37.051 0.089843-2.4023-1.5273-3.293-5.4414-4.4844-0.95703-0.29297-1.8633-0.57031-2.625-0.95312-1.1758-0.29688-6.5508 1.5352-8.3398 4.3945-0.98047 1.5742-3.375 5.9922-6.1484 11.109-3.9375 7.2578-8.8242 16.289-11.793 21.039-4.7773 7.6484-35.34 45.426-37.559 48.629-1.1211 1.6172-4.5625 8.7695-6.0977 8.6016-2.5078-0.27344-3.4453-7.2305-3.4453-7.2305l-0.46484-4.207c0.09375-2.9922-1.0938-9.3906-0.375-48.559 0.10156-5.543 0.20703-11.289 0.29688-17.062 0.44141-27.984-1.875-39.922-2.7734-42.488-1.4883-0.92578-6.3516-3.4727-12.824-2.1328-3.3164 1.8203-6.5898 19.551-9.6211 52.652-0.33984 3.707-0.61719 6.7383-0.85156 8.6953-1.0195 8.5234-1.6641 24.641-2.1328 36.41-0.17188 4.2969-0.32422 8.0859-0.46484 10.863-0.58203 11.414-2.4414 20.43-7.9727 21.281-2.207 0.36328-4.4922-3.5273-11.008-15.141-2.8438-5.0625-6.6914-12.48-8.9531-18.145-4.2188-10.543-9.2891-45.164-10.656-56.582-0.95703-7.9727-3.7031-8.3398-5.707-8.6016-0.69922-0.09375-1.4219-0.19141-2.1328-0.54297-0.015625-0.011719-2.6641-1.1133-5.6914 2.1055-1.457 1.9023-0.20703 13.371 0.70703 21.746 0.69531 6.3711 1.4844 13.59 1.8203 20.668 0.54297 11.355 3.4648 28.707 6.0469 44.016 1.9102 11.344 3.7188 22.062 4.3555 29.113 1.1914 13.121-3.7852 39.715-6.4609 54-0.67188 3.5742-1.2422 6.6484-1.3164 7.4414-0.29688 3.2188 0.003907 15.344 0.14453 19.746l0.015626 0.44922z"/>
        <path d="m265.77 277.74c-0.16797-0.41016-1.6172-4.0703-1.4688-7.2539 0.13281-2.7656 4.6992-7.2539 4.8164-7.8398l2.3477 0.48047c-0.29688 1.4609-1.0938 5.6914-1.1875 7.6445-0.066407 1.4766 0.66797 3.8125 1.0312 4.7109z"/>
        <path d="m256.12 285.21c-3.625 0-3.6016-0.4375-5.1523-1.6797-1.0039-0.80078-3.2422-5.0742-3.6133-8.6562l0.59766-1.1328c2.4688 2.168 5.2852 4.582 6.3516 5.4336 1.3203 0.12891 4.9961-0.003906 7.9648-0.24609l0.46875 5.9648c-2.9062 0.22656-5.0391 0.31641-6.6172 0.31641z"/>
        <path d="m264.35 357.8c-0.14453-0.74609-1.3594-7.375 0.10156-11.738 1.4375-4.3008 11.418-10.848 15.641-13.453l3.1523 5.0859c-6.3281 3.9219-12.465 8.7305-13.125 10.293 0 0-3.3477 0.30078-3.9648 9.457z"/>
        <path d="m294.79 360.16c-3.3828 0-7.9453-1.4102-12.668-3.543-1.2891-0.58203-4.3555-3.6055-4.3555-3.6055l0.30078-1.1211c0.10156 0 4.1836 1.0312 4.9492 1.1484 13.281 2.1055 16.648 0.77344 17.359 0.3125l0.45312-0.23437 4.8398-2.0547 2.3359 5.5-4.6367 1.9727c-1.8555 1.0859-4.6719 1.625-8.5781 1.625z"/>
        <path d="m271.84 335.91c-0.55859 0-1.1523-0.011719-1.7852-0.042969-6.5352-0.34766-18.688-4.3164-22.477-6.0312-3.1484 0.24609-5.5039-1.5-7.5156-5.5234-3.1523-6.3008-2.1172-16.918 0.93359-19.102 2.4688-1.7656 27.332-5.4141 27.535-5.4141 0.90234 0 4.9766-0.56641 8.3906-1.1094l0.94531 5.9062c-1.2422 0.19531-7.5156 1.1875-9.3359 1.1875-1.9023 0.10156-19.566 3.1523-23.773 4.3125-0.61719 1.9492-1.293 7.668 0.64844 11.547 0.98047 1.9727 1.6016 2.2891 1.6055 2.2969 0.69531-0.125 1.8086-0.27344 2.9062 0.42578 1.8477 0.88672 14.402 5.2188 20.453 5.5312 4.5039 0.24609 5.7344-0.62891 5.7461-0.63281 0 0-0.20703 0.15234-0.42188 0.57813l5.3359 2.7031c-0.65625 1.3008-2.7266 3.3672-9.1914 3.3672z"/>
        <path d="m148.26 373.22c-5.7891-0.90625-25.004-4.0977-29.203-7.3086-4.4648-3.3984-7.5938-10.148-7.7266-10.426l5.4375-2.4961c0.72656 1.5664 3.2031 6.1055 5.918 8.1719 2.0508 1.5625 15.348 4.4141 26.5 6.1562z"/>
        <path d="m198 396.51c-2.043 0-4.7266-0.41406-7.1133-2.1406-3.5898-2.5977-10.551-12.414-11.91-14.352l4.8984-3.4258c2.9219 4.1719 8.3672 11.379 10.516 12.938 2.1602 1.5625 5.3633 0.82812 5.3867 0.82422l1.4336 5.8086c-0.26562 0.0625-1.5195 0.34766-3.2109 0.34766z"/>
        <path d="m527.39 441.96c-0.84375 0-1.5781-0.050781-2.1719-0.15234-7.2969-1.2812-8.8242-3.9414-8.8242-5.9453l-0.32031-13.883c-2-0.35937-4.6523-0.95312-6.2539-1.7539-2.0156-1.0117-3.6172-3.1406-4.5703-4.6484-2.3906-0.22266-6.9453-0.91797-12.398-3.1016-6.2383-2.4922-11.711-4.7305-13.355-5.4102l-25.789-0.90625c-1.8711-0.66797-4.0039-1.2695-4.8008-1.3555-1.3789 0.36328-4.5586 0.96484-6.5781 1.3203-1.5117 1.4961-5.1562 5.0742-7.0117 6.6211-2.5977 2.1719-7.6094-1.2773-7.8945-1.1797l0.55469-1.332s1.7695-0.62109 3.5156-2.0781c2.1094-1.7578 7.2227-6.8711 7.2812-6.9141l0.66016-0.66797 0.92969-0.16406c2.9023-0.50781 6.418-1.1875 7.0625-1.3906 0.66016-0.21875 2.0234-0.67578 7.8438 1.3555l25.504 0.75 0.50391 0.20703c0.003906 0.003906 6.3516 2.6133 13.805 5.6016 6.7812 2.7109 11.934 2.7734 11.988 2.7734l1.832 0.015625 0.82812 1.6406c0.69531 1.3711 1.9805 3.125 2.7734 3.5234 1.2383 0.60938 4.7812 1.293 6.9102 1.5781l2.5352 0.33984 0.40234 17.988c0.53125 0.27344 1.668 0.73828 3.9102 1.1328 5.332 0.90234 32.469-5.3125 44.711-10.293 6.8984-2.8047 14.254-8.9648 21.84-18.305l0.53906-0.65625c1.1719-1.3984 2.5312-6.5 2.6641-8.0312-0.38672-1.8711-3.3984-11.883-6.3164-21.578-2.7422-9.1328-5.8398-19.426-8.1406-27.473-4.75-16.613-34.043-26.68-34.34-26.773-5.1406-1.5586-127.89-38.887-136.04-41.52-6.6602-2.1523-11.469 0.81641-11.664 0.94531l-0.5 0.3125-0.59375 0.11719-91.055 16.328-1.0547-5.8906 90.535-16.23c1.9102-1.0469 8.1406-3.8711 16.168-1.2773 8.1094 2.6133 134.75 41.125 136.04 41.52 1.4102 0.47656 32.664 11.223 38.266 30.828 2.2969 8.0312 5.3828 18.289 8.1211 27.395 5.707 19 6.5625 22.031 6.5625 23.145 0 2.0547-1.6172 9.0781-4.0586 12.012l-0.48828 0.59375c-8.2305 10.129-16.387 16.883-24.238 20.07-10.543 4.2891-36.051 10.797-45.824 10.797z"/>
        <path d="m437.55 432.6c-5.1367 0-14.945-0.80469-18.633-2.1523-4.5977-1.6758-13.188-12.945-15.719-16.359l-0.21094-0.33984c-0.11719-0.20703-2.793-5.1055-3.9141-8.1133-1.9023-5.0742-0.99609-10.785 2.25-14.195 2.4297-2.5547 35.211-42.297 35.441-42.555l-2.0898 6.8828c-0.94531 1.0547-26.523 37.172-29.02 39.793-1.6875 1.7578-2.0898 5.0391-0.99219 7.9805 0.77734 2.0703 2.6836 5.7109 3.4648 7.1562 4.6641 6.293 10.891 13.422 12.824 14.129 3.5391 1.2812 16.418 2.0234 18.305 1.7305 1.9883-0.33594 8.8203-2.1289 13.914-4.5977 3.0625-1.4883 2.7734-5.207 1.9805-10.703l-0.054688-0.38672c-0.42188-2.9727-4.1953-5.3945-5.4805-5.9961l2.5664-5.4023c0.80469 0.375 7.8945 3.9219 8.8438 10.555l0.0625 0.37891c0.76172 5.3477 1.9258 13.43-5.2969 16.934-5.6016 2.7148-12.891 4.6758-15.547 5.1172-0.54688 0.09375-1.4922 0.14453-2.6953 0.14453z"/>
        <path d="m438.48 420.41-1.0469-0.12891s-0.27344-3.9805-0.42188-6.4102c-0.085938-1.3477-3.6797-3.2695-3.7305-3.3359l4.3633-4.082c0.26172 0.26172 2.5469 2.7344 1.8125 7.1055-0.48047 2.9336-0.97656 6.8516-0.97656 6.8516z"/>
        <path d="m401.81 411.56c-3.125 0-9.0781-0.17969-12.258-1.457-1.7656-0.70703-14.379-6.9844-15.293-12.312-0.56641-3.2578-0.80469-11.375 0.015625-15.473 0.76562-3.8359 24.668-34.059 35.348-48.223l-0.57031 4.8281c-13.184 17.504-27.961 41.938-28.957 44.734-0.60547 3.0781-0.40234 10.41 0.0625 13.121 0.69922 1.4609 7.582 6.1602 11.621 7.7734 2.2969 0.92578 8.4375 1.1133 11.793 1.0078l0.17188 5.9805c-0.24219 0-0.94922 0.019531-1.9336 0.019531z"/>
        <path d="m375.57 397.63c-2.3789-0.99609-14.426-6.1211-17.434-9.1211-3.5547-3.5547-7.3516-10.625-7.3516-19.809 0-7.1953 4.8398-15.961 7.8438-19.516 2.168-2.5703 24.973-26.207 30.57-35.285v2.9062c-5.6016 3.3711-23.238 32.984-26.012 36.25-2.3516 2.7773-6.0977 10.258-6.0977 15.652 0 7.3594 2.8555 12.992 5.4375 15.578 1.4336 1.4336 9.0938 5.1797 15.438 7.8242z"/>
        <path d="m303.79 332.99-0.30078-5.9766 77.051-4.1055-5.3984 6.4414z"/>
        <path d="m358.64 403.2h-0.40234c-0.15625 0-15.844 1.4766-19.621 1.5391-4.4727 0.011719-9.0508-2.8242-11.699-6.5-3.3281-4.6328-1.5859-10.574-0.74609-13.625 0.10156-0.37109 0.19141-0.46875 0.22266-0.66797 0.46484-2.7891 7.9414-11.559 12.801-14.438 5.0117-2.957 13.637-4.7266 14-4.8047l1.2227 5.8867c-0.078125 0.015625-8.0195 1.707-12.176 4.168-3.793 2.2305-9.207 8.9883-9.9961 10.641-0.066406 0.30078-0.17188 0.71875-0.3125 1.2031-0.54297 1.9805-1.8203 5.2539-0.16406 7.5586 2.1484 2.9805 5.1445 3.4414 6.7148 3.4414h0.035157c3.5508 0 16.793 1.3984 19.355 1.4219 3.3672-0.90625 11.199-2.375 12.902-2.9414 2.0391-0.67578 5.0977-1.8086 5.125-1.832l2.6094 5.5625c-0.13281 0.0625-3.4375 1.7422-5.8398 2.543-2.2969 0.76172-13.16 2.168-13.621 2.2969z"/>
        <path d="m506.26 415.68-0.72266-5.9414c5.2695-0.64453 10.887-2.3789 11.781-3.6406 1.8477-2.5859 4.3164-8.8125 5.1055-11l1.3711 0.5c-0.32031 0.88672 1.043 10.266-1.6133 13.977-3.0078 4.2344-12.945 5.7383-15.922 6.1055z"/>
        <path d="m518.89 423.38-0.67578-5.9414c0.050781-0.003906 5.1562-0.60547 9.0117-1.9727 3.7812-1.3281 8.1914-4.4531 8.2383-4.4805l0.54297 0.76172c-0.20703 0.15234-2.207 7.7461-6.7812 9.3633-4.5117 1.5977-10.098 2.2461-10.336 2.2695z"/>
    </g>
</svg>
