
<svg version="1.0" xmlns="http://www.w3.org/2000/svg"
 width="30px" height="30px" viewBox="0 0 512.000000 512.000000"
 preserveAspectRatio="xMidYMid meet">

<g transform="translate(0.000000,512.000000) scale(0.100000,-0.100000)"
fill="#9b9b9b" stroke="none">
<path d="M3096 5097 c-32 -32 -33 -71 -3 -101 18 -18 38 -24 97 -29 145 -12
264 -68 371 -176 110 -110 152 -205 175 -394 3 -28 14 -57 25 -68 24 -24 70
-25 99 -1 20 16 22 27 21 89 -7 361 -309 670 -683 700 -72 6 -77 5 -102 -20z"/>
<path d="M1741 4959 c-145 -28 -253 -88 -349 -195 -138 -153 -196 -333 -172
-531 27 -214 149 -461 358 -723 105 -131 359 -388 531 -537 165 -142 389 -312
571 -433 539 -359 979 -708 1305 -1034 193 -193 308 -339 371 -471 78 -161 70
-259 -27 -335 -74 -59 -146 -82 -269 -88 -119 -5 -218 11 -361 59 -122 41
-145 39 -173 -15 -20 -39 -4 -80 37 -99 117 -55 330 -99 472 -99 178 0 319 52
425 155 130 127 139 274 30 492 -69 139 -188 292 -375 484 -316 324 -683 619
-1245 1005 -661 454 -1036 793 -1283 1160 -130 194 -217 426 -217 581 0 238
184 449 412 474 187 20 472 -54 705 -185 66 -37 68 -39 46 -104 -12 -40 -2
-245 17 -341 29 -144 45 -169 105 -169 16 0 26 -9 35 -32 7 -18 37 -82 67
-141 49 -101 52 -110 38 -130 -26 -37 -17 -69 41 -152 207 -293 473 -524 784
-680 217 -109 362 -148 555 -149 72 -1 144 2 160 6 30 7 31 5 115 -135 370
-622 543 -1156 502 -1551 -24 -230 -93 -397 -236 -575 -100 -124 -280 -237
-451 -282 -100 -27 -363 -37 -487 -20 -609 86 -1380 523 -2173 1230 -438 391
-915 939 -1084 1246 -135 244 -152 456 -41 520 45 26 169 26 255 1 356 -106
806 -520 971 -892 13 -30 40 -109 60 -177 62 -212 112 -284 376 -542 287 -281
547 -494 828 -680 202 -134 250 -158 281 -146 44 16 60 51 46 101 -4 18 -27
38 -74 65 -307 179 -638 442 -976 775 -222 218 -281 294 -316 411 -12 40 -31
106 -43 144 -102 344 -519 808 -904 1005 -43 22 -122 55 -174 72 -84 28 -108
32 -210 32 -100 1 -122 -2 -165 -22 -257 -118 -242 -463 39 -880 426 -633
1153 -1327 1913 -1826 507 -332 950 -528 1328 -587 122 -19 424 -17 512 4 235
54 401 144 558 302 298 298 389 695 279 1218 -137 649 -634 1501 -1287 2208
-715 775 -1415 1224 -1899 1218 -51 -1 -113 -5 -137 -10z m1502 -879 c70 -65
110 -108 103 -112 -23 -13 -99 6 -144 36 -53 35 -88 91 -98 155 -9 56 -7 55
139 -79z m658 -702 l83 -101 -53 6 c-72 9 -134 47 -167 103 -28 47 -42 128
-29 161 8 21 26 2 166 -169z"/>
<path d="M3126 4757 c-15 -15 -26 -37 -26 -52 0 -34 42 -75 76 -75 71 0 159
-51 190 -112 8 -16 19 -55 24 -86 11 -64 35 -92 81 -92 16 0 38 9 50 21 19 19
21 30 17 88 -12 168 -153 309 -325 327 -57 6 -63 5 -87 -19z"/>
<path d="M33 2044 c-25 -25 -26 -29 -20 -107 10 -144 70 -295 162 -407 132
-161 349 -270 540 -270 83 0 105 15 105 72 0 53 -25 69 -122 79 -155 16 -273
73 -377 185 -97 103 -160 252 -161 377 0 86 -72 126 -127 71z"/>
<path d="M373 2014 c-24 -24 -25 -30 -19 -87 18 -172 159 -313 327 -325 58 -4
69 -2 88 17 27 27 28 82 2 105 -10 9 -43 21 -74 26 -30 5 -69 16 -85 24 -61
31 -112 119 -112 190 0 34 -41 76 -75 76 -15 0 -37 -11 -52 -26z"/>
</g>
</svg>
